<svg id="Capa_1" enable-background="new 0 0 512 512" height="512" viewBox="0 0 512 512" width="512" xmlns="http://www.w3.org/2000/svg"><g><path d="m54.75 0h402.5v512h-402.5z" fill="#fef1f2"/><path d="m256 0h201.25v512h-201.25z" fill="#ebdfd9"/><path d="m254.743 172.707-21.213-21.213-22.732 22.732-24.031-24.031c16.939-6.583 28.983-23.051 28.983-42.289 0-25.012-20.349-45.361-45.361-45.361h-52.316v136.701h30v-45.319l41.512 41.512-22.732 22.732 21.213 21.213 22.732-22.732 22.732 22.732 21.213-21.213-22.732-22.732zm-106.67-80.162h22.316c8.47 0 15.361 6.891 15.361 15.361s-6.891 15.361-15.361 15.361h-22.316z" fill="#39689e"/><path d="m124.083 277h30v30h-30z" fill="#ff4945"/><path d="m187.75 277h200v30h-200z" fill="#79d5fa"/><path d="m286.5 213.778h101.25v30h-101.25z" fill="#4bbbf0"/><path d="m124.083 340.222h30v30h-30z" fill="#ff4945"/><path d="m187.75 340.22h200v30h-200z" fill="#79d5fa"/><path d="m124.085 404.065h30v30h-30z" fill="#ff4945" transform="matrix(1 -.005 .005 1 -2.222 .744)"/><path d="m387.83 432.75-131.83.7-68.17.36-.16-30 68.33-.36 131.67-.7z" fill="#79d5fa"/><g fill="#4bbbf0"><path d="m256 277h131.75v30h-131.75z"/><path d="m256 340.22h131.75v30h-131.75z"/><path d="m387.83 432.75-131.83.7v-30l131.67-.7z"/></g></g></svg>